<?xml version="1.0" encoding="UTF-8" standalone="no"?>
<!-- Created with Inkscape (http://www.inkscape.org/) -->

<svg
   xmlns:dc="http://purl.org/dc/elements/1.1/"
   xmlns:cc="http://creativecommons.org/ns#"
   xmlns:rdf="http://www.w3.org/1999/02/22-rdf-syntax-ns#"
   xmlns:svg="http://www.w3.org/2000/svg"
   xmlns="http://www.w3.org/2000/svg"
   xmlns:sodipodi="http://sodipodi.sourceforge.net/DTD/sodipodi-0.dtd"
   xmlns:inkscape="http://www.inkscape.org/namespaces/inkscape"
   version="1.1"
   id="svg815"
   width="100"
   height="100"
   viewBox="0 0 99.999999 99.999999"
   sodipodi:docname="Nightstand-clock.svg"
   inkscape:version="0.92.3 (2405546, 2018-03-11)">
  <metadata
     id="metadata821">
    <rdf:RDF>
      <cc:Work
         rdf:about="">
        <dc:format>image/svg+xml</dc:format>
        <dc:type
           rdf:resource="http://purl.org/dc/dcmitype/StillImage" />
        <dc:title></dc:title>
      </cc:Work>
    </rdf:RDF>
  </metadata>
  <defs
     id="defs819" />
  <sodipodi:namedview
     pagecolor="#ffffff"
     bordercolor="#666666"
     borderopacity="1"
     objecttolerance="10"
     gridtolerance="10"
     guidetolerance="10"
     inkscape:pageopacity="0"
     inkscape:pageshadow="2"
     inkscape:window-width="1920"
     inkscape:window-height="1017"
     id="namedview817"
     showgrid="false"
     inkscape:zoom="2.71"
     inkscape:cx="145.75646"
     inkscape:cy="36.531365"
     inkscape:window-x="-8"
     inkscape:window-y="-8"
     inkscape:window-maximized="1"
     inkscape:current-layer="svg815" />
  <g
     id="g1999">
    <circle
       r="49.047619"
       cy="50"
       cx="50"
       id="path831"
       style="opacity:1;fill:none;fill-opacity:1;stroke:#e8e8e8;stroke-width:1.90476191;stroke-miterlimit:4;stroke-dasharray:none;stroke-opacity:1" />
    <path
       inkscape:connector-curvature="0"
       id="path1980"
       d="m 48.355261,79.986795 c -0.1593,-0.0158 -0.6644,-0.0643 -1.1224,-0.10782 -1.5806,-0.15027 -3.1786,-0.50082 -5.2204,-1.14522 -0.4943,-0.15602 -1.0922,-0.33829 -1.3287,-0.40505 -1.0535,-0.29739 -2.2717,-0.88571 -3.4081,-1.64587 -0.4381,-0.29306 -1.1061,-0.74042 -1.4845,-0.99413 -4.5677,-3.0628 -8.1044,-7.68775 -9.8472,-12.87734 -0.6601,-1.96539 -0.9748,-3.41934 -1.242,-5.73746 -0.1121,-0.97255 -0.1115,-3.86363 0,-4.85184 0.2597,-2.28055 0.5769,-3.75223 1.2333,-5.72083 2.0746,-6.22225 6.6931,-11.52131 12.6361,-14.49809 2.3589,-1.1815 4.6429,-1.92934 7.2582,-2.37645 7.4981,-1.28185 15.0638,0.8678 20.9188,5.94368 0.8864,0.76843 2.259,2.20541 3.0398,3.18239 3.6627,4.5827 5.5646,10.01463 5.5654,15.89522 8e-4,5.19536 -1.4571,9.95677 -4.3569,14.22967 -1.5231,2.24421 -3.5442,4.38146 -5.6248,5.94813 -2.8838,2.17137 -4.8858,3.19777 -7.9579,4.07979 -2.9054,0.83418 -4.2826,1.04676 -7.0321,1.08543 -0.9559,0.0135 -1.8684,0.0116 -2.0277,-0.004 z m 4.192,-5.06882 c 2.6812,-0.33195 5.5179,-1.30682 7.8652,-2.70301 4.6948,-2.79253 8.1217,-7.43292 9.4435,-12.78755 0.5388,-2.18273 0.6778,-5.01352 0.368,-7.49501 -0.4373,-3.50332 -1.9361,-7.03475 -4.2247,-9.95393 -0.757,-0.96555 -2.2578,-2.48406 -3.1971,-3.23479 -3.6853,-2.94553 -8.0978,-4.49294 -12.8175,-4.49502 -4.148,-0.002 -8.09,1.21036 -11.4779,3.52949 -3.7647,2.57704 -6.4686,6.1669 -7.8927,10.47859 -0.7488,2.26732 -1.0101,3.95111 -1.0031,6.46366 0.01,2.50405 0.2505,4.03191 1.0098,6.33636 2.5778,7.82338 9.6138,13.33063 17.8529,13.97382 1.0303,0.0804 2.9409,0.0276 4.0736,-0.11261 z m -2.7437,-18.97153 c -0.544,-0.28237 -0.8328,-0.73258 -0.8328,-1.29846 0,-0.42729 0.1364,-0.73599 0.4621,-1.04613 l 0.2621,-0.24955 v -7.41397 -7.41396 l 0.2117,-0.21168 c 0.2809,-0.28093 0.5773,-0.28106 0.8915,-3.7e-4 l 0.2365,0.21129 0.036,6.89414 0.036,6.89415 1.8466,-1.40336 c 3.0777,-2.33896 3.5023,-2.64768 3.7583,-2.73255 1.1382,-0.37734 2.1866,0.81391 1.6808,1.90982 -0.1629,0.35311 -0.1798,0.36814 -1.7097,1.52626 -0.6771,0.51254 -1.8665,1.41455 -2.6432,2.00447 -2.6618,2.02181 -3.0454,2.30383 -3.229,2.37364 -0.2754,0.10469 -0.762,0.0836 -1.0073,-0.0437 z m -27.4043,-17.61831 c -0.43,-0.84296 -0.9127,-2.36141 -1.1408,-3.58844 -0.175,-0.94188 -0.1721,-3.08667 0.01,-4.06127 0.1699,-0.93203 0.551,-2.24393 0.865,-2.97752 0.8168,-1.90837 2.2761,-3.79172 3.8999,-5.03312 0.3063,-0.23418 0.5775,-0.42578 0.6025,-0.42578 0.025,0 0.1818,-0.0933 0.3483,-0.20741 0.5728,-0.39251 2.4799,-1.30484 3.1079,-1.48683 2.0996,-0.60844 4.2348,-0.70685 6.2796,-0.28942 1.193,0.24355 1.8738,0.48174 3.081,1.07791 1.4698,0.72587 2.4075,1.40194 3.4791,2.50832 0.5976,0.6169 1.771,2.11024 1.771,2.25377 0,0.0206 -0.4481,0.29054 -0.9957,0.59987 -0.5476,0.30934 -1.4845,0.83906 -2.0819,1.17715 -0.5975,0.33809 -1.4936,0.84333 -1.9915,1.12276 -0.4978,0.27943 -1.2636,0.71093 -1.7017,0.95889 -0.4382,0.24796 -1.3343,0.75232 -1.9915,1.12081 -0.6571,0.36849 -1.5696,0.88217 -2.0276,1.14151 -0.9785,0.55403 -1.9753,1.11613 -3.6208,2.04177 -0.6572,0.36967 -1.5533,0.87432 -1.9914,1.12144 -0.4381,0.24713 -1.2365,0.69583 -1.7742,0.99712 -0.5377,0.3013 -1.4827,0.83203 -2.1,1.17942 -0.6174,0.34738 -1.2921,0.72704 -1.4994,0.84369 l -0.377,0.21208 z m 54.705,0.11017 c -0.318,-0.18473 -2.0742,-1.17582 -3.5484,-2.0025 -0.5177,-0.29036 -1.2998,-0.73079 -1.7379,-0.97874 -0.4382,-0.24795 -1.3343,-0.75304 -1.9915,-1.12243 -0.6571,-0.36938 -1.5533,-0.87369 -1.9914,-1.12068 -0.4381,-0.24699 -1.2039,-0.67772 -1.7018,-0.95719 -2.4904,-1.39796 -4.7378,-2.66464 -5.5398,-3.12231 -0.3186,-0.18185 -0.9377,-0.53074 -1.3759,-0.77531 -0.4381,-0.24456 -1.3342,-0.7492 -1.9914,-1.1214 -0.6572,-0.37221 -1.3659,-0.77111 -1.575,-0.88646 -0.2091,-0.11534 -0.3802,-0.22757 -0.3802,-0.24939 0,-0.0218 0.1527,-0.25563 0.3394,-0.51958 1.303,-1.8424 2.8179,-3.18568 4.6573,-4.12959 1.1235,-0.57655 1.6014,-0.7622 2.6258,-1.02001 2.1611,-0.5439 3.9309,-0.5729 6.064,-0.0994 1.1698,0.25966 1.621,0.41954 2.7449,0.97243 4.0323,1.98378 6.5847,5.6481 7.1088,10.20543 0.1787,1.55458 -0.052,3.51846 -0.6145,5.23648 -0.2211,0.67491 -0.7187,1.86141 -0.7799,1.85957 -0.013,-3.8e-4 -0.1532,-0.0764 -0.3125,-0.16894 z"
       style="fill:#e8e8e8;fill-opacity:1;stroke-width:0.07241561" />
  </g>
</svg>
