<?xml version="1.0" encoding="UTF-8" standalone="no"?>
<!-- Created with Inkscape (http://www.inkscape.org/) -->

<svg
   xmlns:dc="http://purl.org/dc/elements/1.1/"
   xmlns:cc="http://creativecommons.org/ns#"
   xmlns:rdf="http://www.w3.org/1999/02/22-rdf-syntax-ns#"
   xmlns:svg="http://www.w3.org/2000/svg"
   xmlns="http://www.w3.org/2000/svg"
   xmlns:sodipodi="http://sodipodi.sourceforge.net/DTD/sodipodi-0.dtd"
   xmlns:inkscape="http://www.inkscape.org/namespaces/inkscape"
   version="1.1"
   id="svg815"
   width="100"
   height="100"
   viewBox="0 0 99.999999 99.999999"
   sodipodi:docname="Nightstand-close.svg"
   inkscape:version="0.92.3 (2405546, 2018-03-11)">
  <metadata
     id="metadata821">
    <rdf:RDF>
      <cc:Work
         rdf:about="">
        <dc:format>image/svg+xml</dc:format>
        <dc:type
           rdf:resource="http://purl.org/dc/dcmitype/StillImage" />
        <dc:title></dc:title>
      </cc:Work>
    </rdf:RDF>
  </metadata>
  <defs
     id="defs819" />
  <sodipodi:namedview
     pagecolor="#ffffff"
     bordercolor="#666666"
     borderopacity="1"
     objecttolerance="10"
     gridtolerance="10"
     guidetolerance="10"
     inkscape:pageopacity="0"
     inkscape:pageshadow="2"
     inkscape:window-width="1920"
     inkscape:window-height="1017"
     id="namedview817"
     showgrid="false"
     inkscape:zoom="2.71"
     inkscape:cx="145.75646"
     inkscape:cy="36.531365"
     inkscape:window-x="-8"
     inkscape:window-y="-8"
     inkscape:window-maximized="1"
     inkscape:current-layer="svg815" />
  <g
     id="g1423">
    <circle
       r="49.047619"
       cy="50"
       cx="50"
       id="path831"
       style="opacity:1;fill:none;fill-opacity:1;stroke:#e8e8e8;stroke-width:1.90476191;stroke-miterlimit:4;stroke-dasharray:none;stroke-opacity:1" />
    <path
       inkscape:connector-curvature="0"
       id="path1396"
       d="m 33.558146,72.443515 c -0.81788,-0.20618 -1.03593,-0.37881 -3.24052,-2.56554 -2.16618,-2.14863 -2.46807,-2.4921 -2.674,-3.04234 -0.28,-0.74816 -0.091,-2.00973 0.40795,-2.7223 0.12091,-0.17269 3.31825,-3.40994 7.10519,-7.19388 l 6.88536,-6.87989 -6.98135,-6.99131 c -6.43521,-6.444391 -6.99914,-7.028741 -7.20873,-7.469631 -0.3126,-0.65761 -0.42262,-1.34971 -0.30753,-1.93466 0.17011,-0.8647 0.30589,-1.0369 2.71539,-3.44364 1.86325,-1.86111 2.32766,-2.28673 2.68222,-2.45819 0.88056,-0.42582 2.01325,-0.3033 2.95926,0.32008 0.28252,0.18617 2.87238,2.72573 7.28157,7.14014 l 6.84311,6.851221 7.10169,-7.092471 c 6.65854,-6.64989 7.12694,-7.10162 7.50641,-7.23926 0.85522,-0.3102 1.57442,-0.27933 2.45295,0.10528 0.40286,0.17637 0.70383,0.44681 2.68355,2.41134 1.87055,1.8562 2.26526,2.2845 2.44987,2.65837 0.3903,0.79044 0.37112,1.74954 -0.0534,2.66872 -0.16921,0.3664 -1.05177,1.27788 -7.17439,7.409481 -3.8398,3.84543 -6.98141,7.00784 -6.98135,7.02759 6e-5,0.0197 3.15813,3.19831 7.01795,7.06349 6.04212,6.0505 7.04548,7.08542 7.21658,7.44355 0.36874,0.77178 0.32417,1.85749 -0.11205,2.72978 -0.0996,0.19908 -0.97431,1.13409 -2.40542,2.57113 -1.944,1.95205 -2.30722,2.28441 -2.67863,2.45109 -0.53176,0.23864 -1.28344,0.31395 -1.83508,0.18386 -1.01618,-0.23965 -0.73054,0.0197 -8.25208,-7.49328 l -6.9724,-6.9645 -7.08277,7.07061 c -7.92587,7.91226 -7.32068,7.3819 -8.47911,7.43077 -0.32479,0.0137 -0.7164,-0.007 -0.87026,-0.0456 z"
       style="fill:#e8e8e8;fill-opacity:1;stroke-width:0.0735873" />
  </g>
</svg>
