<?xml version="1.0" encoding="UTF-8" standalone="no"?>
<!-- Created with Inkscape (http://www.inkscape.org/) -->

<svg
   xmlns:dc="http://purl.org/dc/elements/1.1/"
   xmlns:cc="http://creativecommons.org/ns#"
   xmlns:rdf="http://www.w3.org/1999/02/22-rdf-syntax-ns#"
   xmlns:svg="http://www.w3.org/2000/svg"
   xmlns="http://www.w3.org/2000/svg"
   xmlns:sodipodi="http://sodipodi.sourceforge.net/DTD/sodipodi-0.dtd"
   xmlns:inkscape="http://www.inkscape.org/namespaces/inkscape"
   version="1.1"
   id="svg815"
   width="100"
   height="100"
   viewBox="0 0 99.999999 99.999999"
   sodipodi:docname="Nightstand-moon.svg"
   inkscape:version="0.92.3 (2405546, 2018-03-11)">
  <metadata
     id="metadata821">
    <rdf:RDF>
      <cc:Work
         rdf:about="">
        <dc:format>image/svg+xml</dc:format>
        <dc:type
           rdf:resource="http://purl.org/dc/dcmitype/StillImage" />
        <dc:title></dc:title>
      </cc:Work>
    </rdf:RDF>
  </metadata>
  <defs
     id="defs819" />
  <sodipodi:namedview
     pagecolor="#ffffff"
     bordercolor="#666666"
     borderopacity="1"
     objecttolerance="10"
     gridtolerance="10"
     guidetolerance="10"
     inkscape:pageopacity="0"
     inkscape:pageshadow="2"
     inkscape:window-width="1920"
     inkscape:window-height="1017"
     id="namedview817"
     showgrid="false"
     inkscape:zoom="2.71"
     inkscape:cx="145.75646"
     inkscape:cy="36.531365"
     inkscape:window-x="-8"
     inkscape:window-y="-8"
     inkscape:window-maximized="1"
     inkscape:current-layer="svg815" />
  <g
     id="g841">
    <path
       inkscape:connector-curvature="0"
       id="path829"
       d="m 49.321252,74.976261 c -0.023,-0.0216 -0.52208,-0.0662 -1.10909,-0.0991 -0.58701,-0.0329 -1.12883,-0.0809 -1.20404,-0.10665 -0.0752,-0.0257 -0.36251,-0.071 -0.63843,-0.10059 -0.27593,-0.0296 -0.63714,-0.0768 -0.8027,-0.10496 -0.16555,-0.0281 -0.45769,-0.0776 -0.64919,-0.10998 -0.19151,-0.0323 -0.53014,-0.12014 -0.75253,-0.19507 -0.22238,-0.0749 -0.52776,-0.15821 -0.67861,-0.18504 -0.15085,-0.0268 -0.31267,-0.0725 -0.35962,-0.10154 -0.0469,-0.029 -0.23773,-0.0796 -0.42398,-0.11241 -0.18625,-0.0328 -0.38979,-0.10211 -0.4523,-0.15399 -0.0625,-0.0519 -0.14338,-0.0646 -0.1797,-0.0283 -0.0363,0.0363 -0.066,0.0107 -0.066,-0.057 0,-0.0676 -0.0395,-0.0986 -0.0877,-0.0688 -0.0931,0.0576 -1.28091,-0.3931 -1.49261,-0.56632 -0.069,-0.0565 -0.12542,-0.0735 -0.12542,-0.0379 0,0.0356 -0.1105,-0.008 -0.24555,-0.0961 -0.13505,-0.0885 -0.27244,-0.15258 -0.30531,-0.14243 -0.11592,0.0358 -0.65318,-0.22856 -0.65318,-0.32142 0,-0.0517 -0.0452,-0.0662 -0.10033,-0.0321 -0.0552,0.0341 -0.10034,0.0142 -0.10034,-0.0443 0,-0.0584 -0.0339,-0.0958 -0.0753,-0.0831 -0.12535,0.0386 -1.02845,-0.43533 -1.02845,-0.53975 0,-0.0535 -0.0452,-0.0694 -0.10034,-0.0353 -0.0552,0.0341 -0.10034,0.0115 -0.10034,-0.0502 0,-0.0617 -0.0451,-0.0843 -0.10033,-0.0502 -0.0552,0.0341 -0.10034,0.0215 -0.10034,-0.028 0,-0.0495 -0.24833,-0.21157 -0.55185,-0.36019 -0.30352,-0.14862 -0.55185,-0.31664 -0.55185,-0.37338 0,-0.0567 -0.0394,-0.0788 -0.0875,-0.0491 -0.0481,0.0298 -0.24004,-0.0916 -0.42643,-0.26976 -0.18639,-0.17813 -0.34863,-0.3014 -0.36053,-0.27394 -0.0119,0.0275 -0.31495,-0.17163 -0.67345,-0.44243 -0.3585,-0.2708 -0.62761,-0.53154 -0.59801,-0.57942 0.0296,-0.0479 0.0145,-0.0747 -0.0336,-0.0595 -0.11146,0.0351 -0.73665,-0.48435 -0.66687,-0.55413 0.0287,-0.0287 -0.0314,-0.0787 -0.13361,-0.11113 -0.17937,-0.0569 -2.23743,-2.08966 -2.23743,-2.20989 0,-0.0326 -0.18599,-0.25689 -0.41332,-0.49846 -0.22734,-0.24158 -0.40775,-0.46705 -0.40092,-0.50106 0.007,-0.034 -0.10482,-0.1934 -0.2481,-0.35421 -0.14329,-0.16082 -0.24507,-0.3178 -0.22619,-0.34887 0.0189,-0.0311 -0.0673,-0.12763 -0.19143,-0.2146 -0.12417,-0.087 -0.22576,-0.22329 -0.22576,-0.30294 0,-0.0797 -0.0478,-0.14481 -0.10626,-0.14481 -0.0584,0 -0.0784,-0.0452 -0.0442,-0.10034 0.0341,-0.0552 0.0239,-0.10034 -0.0226,-0.10034 -0.0893,0 -0.40887,-0.49226 -0.41307,-0.63624 -10e-4,-0.0464 -0.0757,-0.13795 -0.16525,-0.20342 -0.13774,-0.10071 -0.19996,-0.24623 -0.24425,-0.57121 -0.004,-0.031 -0.0997,-0.15515 -0.21226,-0.27593 -0.11252,-0.12078 -0.17717,-0.21959 -0.14367,-0.21959 0.0335,0 -0.0273,-0.12417 -0.13512,-0.27593 -0.19079,-0.26855 -0.51552,-0.96936 -0.50706,-1.0943 0.002,-0.0342 -0.052,-0.097 -0.12079,-0.13947 -0.0687,-0.0425 -0.13136,-0.16364 -0.13913,-0.26922 -0.008,-0.10559 -0.0962,-0.36935 -0.19649,-0.58616 -0.42781,-0.9248 -0.47635,-1.0373 -0.5023,-1.16399 -0.0287,-0.14016 -0.11221,-0.3797 -0.2677,-0.76784 -0.0514,-0.1283 -0.0676,-0.27504 -0.0361,-0.32609 0.0316,-0.0511 0.01,-0.0928 -0.0489,-0.0928 -0.0584,0 -0.10682,-0.10159 -0.10751,-0.22576 -6.7e-4,-0.12417 -0.1123,-0.62719 -0.24802,-1.11784 -0.13573,-0.49065 -0.22474,-0.92775 -0.19779,-0.97135 0.0269,-0.0436 0.009,-0.10395 -0.0398,-0.13412 -0.0488,-0.0302 -0.11884,-0.31549 -0.15561,-0.63404 -0.0368,-0.31855 -0.091,-0.72872 -0.12056,-0.91149 -0.11272,-0.69745 -0.21224,-2.61672 -0.18307,-3.53065 0.0402,-1.25967 0.1533,-2.94337 0.20321,-3.02502 0.0219,-0.0358 0.0623,-0.23899 0.0898,-0.45152 0.0275,-0.21253 0.0736,-0.49929 0.10251,-0.63726 0.0289,-0.13796 0.0788,-0.40887 0.11092,-0.60202 0.0321,-0.19315 0.0929,-0.4189 0.13513,-0.50168 0.0422,-0.0828 0.0588,-0.20011 0.0368,-0.26073 -0.022,-0.0606 0.0137,-0.24122 0.0791,-0.40134 0.13733,-0.33585 0.17696,-0.48217 0.23797,-0.87875 0.0242,-0.15764 0.0869,-0.33825 0.1393,-0.40135 0.0524,-0.0631 0.10015,-0.14838 0.10617,-0.1895 0.0608,-0.41574 0.14793,-0.67775 0.22525,-0.67775 0.0516,0 0.067,-0.0432 0.0344,-0.0959 -0.0326,-0.0528 0.0168,-0.26723 0.10991,-0.4766 0.0931,-0.20938 0.16366,-0.41022 0.1569,-0.44631 -0.007,-0.0361 0.054,-0.12064 0.13501,-0.18788 0.081,-0.0672 0.1473,-0.188 0.1473,-0.26836 0,-0.22586 1.22244,-2.63874 1.33686,-2.63874 0.0557,0 0.0725,-0.0288 0.0372,-0.0641 -0.0353,-0.0353 0.0478,-0.1971 0.18463,-0.35967 0.13679,-0.16257 0.22317,-0.33691 0.19195,-0.38742 -0.0312,-0.0505 -0.009,-0.0918 0.0495,-0.0918 0.0584,0 0.10626,-0.0484 0.10626,-0.10751 0,-0.0591 0.0564,-0.17044 0.12542,-0.24736 0.30171,-0.33643 0.36067,-0.42997 0.3057,-0.48494 -0.0322,-0.0322 0.0154,-0.0869 0.10579,-0.12154 0.0904,-0.0347 0.14053,-0.10149 0.1115,-0.14846 -0.029,-0.047 0.0611,-0.16007 0.20039,-0.25131 0.13925,-0.0912 0.23197,-0.20019 0.20606,-0.24211 -0.0259,-0.0419 0.11211,-0.24017 0.3067,-0.44054 0.1946,-0.20037 0.32094,-0.36431 0.28075,-0.36431 -0.0402,0 0.0787,-0.13546 0.26408,-0.30101 0.18543,-0.16556 0.29894,-0.30101 0.25225,-0.30101 -0.0467,0 0.22186,-0.29349 0.59681,-0.65219 0.37495,-0.3587 0.64727,-0.65219 0.60516,-0.65219 -0.0421,0 0.0537,-0.10067 0.21289,-0.22371 0.1592,-0.12304 0.45693,-0.39572 0.66163,-0.60595 0.20469,-0.21023 0.40787,-0.39176 0.45151,-0.40339 0.0436,-0.0116 0.0681,-0.055 0.0543,-0.0964 -0.0138,-0.0414 0.0142,-0.0753 0.0622,-0.0753 0.048,0 0.28043,-0.16932 0.51652,-0.37626 0.23609,-0.20695 0.45644,-0.37627 0.48967,-0.37627 0.0332,0 0.15665,-0.0903 0.27426,-0.20067 0.3831,-0.3595 0.68321,-0.57067 1.01528,-0.71441 0.17935,-0.0776 0.32609,-0.17883 0.32609,-0.22489 0,-0.0461 0.19052,-0.16963 0.42338,-0.27458 0.23286,-0.10496 0.54892,-0.29644 0.70236,-0.42551 0.15344,-0.12907 0.27898,-0.20256 0.27898,-0.1633 0,0.0392 0.0564,0.0259 0.12542,-0.0297 0.26848,-0.2164 2.05317,-1.11838 2.3022,-1.16354 0.14475,-0.0263 0.36889,-0.11562 0.49808,-0.1986 0.1292,-0.083 0.3252,-0.16574 0.43557,-0.18389 0.11037,-0.0182 0.22442,-0.0645 0.25343,-0.10287 0.029,-0.0384 0.20778,-0.0972 0.39724,-0.13055 0.18947,-0.0334 0.39149,-0.0993 0.44893,-0.14641 0.10963,-0.09 1.16487,-0.41582 1.50915,-0.46599 0.33481,-0.0488 0.64813,-0.12604 0.73899,-0.18219 0.0473,-0.0293 0.23904,-0.0722 0.42605,-0.0954 0.18701,-0.0232 0.52062,-0.09 0.74136,-0.14848 0.41259,-0.10926 1.65555,-0.23657 1.65555,-0.16957 0,0.0474 -0.73258,0.50401 -0.80986,0.5048 -0.0315,3.2e-4 -0.13635,0.0796 -0.23292,0.17618 -0.0966,0.0966 -0.21576,0.17559 -0.26485,0.17559 -0.0491,0 -0.17004,0.0815 -0.26876,0.18111 -0.0987,0.0996 -0.38253,0.33666 -0.63068,0.52677 -0.75265,0.57661 -0.93505,0.73243 -1.2855,1.09817 -0.18506,0.19315 -0.38133,0.33878 -0.43615,0.32361 -0.0548,-0.0152 -0.0754,0.0117 -0.0457,0.0597 0.0297,0.048 -0.13629,0.2699 -0.3688,0.49311 -0.48436,0.46501 -0.78668,0.82335 -1.44037,1.70726 -0.25507,0.34491 -0.50561,0.62711 -0.55676,0.62711 -0.0511,0 -0.0704,0.0366 -0.0427,0.0814 0.0277,0.0448 -0.12699,0.31569 -0.34371,0.60202 -0.21672,0.28633 -0.36908,0.5206 -0.33857,0.5206 0.0305,0 -0.0267,0.12417 -0.12724,0.27593 -0.10047,0.15176 -0.29544,0.50168 -0.43326,0.77761 -0.13781,0.27592 -0.28829,0.52931 -0.33439,0.56307 -0.0461,0.0338 -0.0795,0.0904 -0.0741,0.1259 0.005,0.0355 -0.0624,0.23361 -0.15054,0.44029 -0.0881,0.20669 -0.31801,0.84988 -0.51083,1.42932 -0.19283,0.57945 -0.37553,1.12126 -0.40602,1.20404 -0.0305,0.0828 -0.0689,0.24081 -0.0853,0.35118 -0.0164,0.11037 -0.10511,0.51673 -0.19703,0.90303 -0.64347,2.70431 -0.58689,6.01811 0.15362,8.9979 0.169,0.68004 0.31704,1.30416 0.32898,1.38694 0.0119,0.0828 0.0443,0.17308 0.0719,0.20067 0.043,0.043 0.35139,0.85025 0.44086,1.15387 0.0163,0.0552 0.14904,0.34867 0.29506,0.65219 0.14602,0.30352 0.26593,0.60375 0.26647,0.66719 5.2e-4,0.0634 0.16021,0.35195 0.35483,0.64115 0.19461,0.2892 0.33278,0.54688 0.30704,0.57263 -0.0258,0.0257 -0.003,0.0984 0.0514,0.16154 0.16543,0.19316 1.49506,2.08152 1.49506,2.12331 0,0.0216 0.10159,0.14894 0.22576,0.28307 0.12417,0.13414 0.49667,0.54906 0.82778,0.92205 0.90641,1.02107 1.25421,1.37768 1.25421,1.286 0,-0.0456 0.10619,0.0296 0.23598,0.16697 0.12979,0.1374 0.40731,0.38527 0.61671,0.55083 0.2094,0.16555 0.5489,0.44775 0.75446,0.6271 0.20555,0.17935 0.40915,0.3261 0.45244,0.3261 0.0433,0 0.21842,0.10599 0.38918,0.23553 0.17076,0.12954 0.64912,0.42577 1.06301,0.65828 0.41388,0.2325 0.88798,0.507 1.05353,0.60999 0.16556,0.10299 0.35733,0.19055 0.42616,0.19459 0.0688,0.004 0.40747,0.13927 0.75253,0.30054 0.34505,0.16126 1.07888,0.43673 1.63074,0.61214 0.55185,0.17541 1.07109,0.34292 1.15387,0.37225 0.0828,0.0293 0.2408,0.0659 0.35117,0.0814 0.11037,0.0154 0.56189,0.0992 1.00337,0.18613 1.29291,0.25461 1.34006,0.26008 2.80943,0.32615 0.86616,0.0389 1.92402,0.0146 2.75925,-0.0635 1.60098,-0.14968 1.59884,-0.14942 1.85623,-0.22899 0.11037,-0.0341 0.3587,-0.0853 0.55185,-0.11382 0.19315,-0.0285 0.87042,-0.21311 1.50505,-0.4103 0.63463,-0.19718 1.23255,-0.37704 1.32871,-0.39968 0.0962,-0.0226 0.84117,-0.36832 1.65556,-0.76819 0.81439,-0.39986 1.51622,-0.72986 1.55962,-0.73334 0.0434,-0.003 0.11113,-0.0525 0.1505,-0.10898 0.0857,-0.12286 0.62345,-0.47392 0.62345,-0.40699 0,0.0257 0.14319,-0.084 0.31821,-0.24382 0.17502,-0.15986 0.35594,-0.26733 0.40206,-0.23883 0.0461,0.0285 0.10947,-0.015 0.14079,-0.0966 0.0313,-0.0816 0.24547,-0.27599 0.47589,-0.43192 0.49163,-0.3327 0.9212,-0.70842 1.55307,-1.35838 0.2519,-0.25912 0.50182,-0.44403 0.55538,-0.41093 0.0536,0.0331 0.068,0.0126 0.032,-0.0456 -0.0359,-0.0581 0.10383,-0.25426 0.31059,-0.43581 0.20677,-0.18154 0.37602,-0.3554 0.37612,-0.38637 8e-5,-0.031 0.25356,-0.37235 0.56324,-0.75865 0.30968,-0.38629 0.75354,-0.98418 0.98635,-1.32863 0.23282,-0.34446 0.46474,-0.6519 0.51538,-0.6832 0.15411,-0.0953 0.077,0.55049 -0.2523,2.11217 -0.0233,0.11037 -0.07,0.33613 -0.10375,0.50168 -0.0338,0.16556 -0.0908,0.39132 -0.12661,0.50169 -0.0824,0.25378 -0.1217,0.42862 -0.17703,0.7883 -0.0243,0.15763 -0.0963,0.34953 -0.16013,0.42643 -0.0638,0.0769 -0.0894,0.13981 -0.057,0.13981 0.0682,0 -0.59125,1.93328 -0.78722,2.30774 -0.0722,0.13797 -0.34654,0.71365 -0.60964,1.27929 -0.2631,0.56565 -0.51838,1.02845 -0.56729,1.02845 -0.0489,0 -0.0633,0.0415 -0.0319,0.0922 0.0314,0.0507 2.2e-4,0.15302 -0.0693,0.22729 -0.0695,0.0743 -0.21664,0.31364 -0.32701,0.53194 -0.11037,0.21829 -0.33836,0.57882 -0.50664,0.80116 -0.16828,0.22235 -0.33618,0.48328 -0.37311,0.57985 -0.0369,0.0966 -0.11638,0.17559 -0.17656,0.17559 -0.0602,0 -0.0834,0.0421 -0.0516,0.0935 0.0318,0.0514 -0.033,0.15705 -0.14394,0.23476 -0.11094,0.0777 -0.17551,0.16749 -0.14348,0.19952 0.032,0.032 -0.0582,0.13451 -0.20045,0.22774 -0.14228,0.0932 -0.23574,0.20662 -0.2077,0.25199 0.028,0.0454 -0.0398,0.14607 -0.15073,0.22378 -0.11094,0.0777 -0.17705,0.16595 -0.1469,0.1961 0.0301,0.0302 -0.0604,0.14548 -0.20131,0.25628 -0.14087,0.11081 -0.25652,0.24012 -0.25699,0.28737 -5.2e-4,0.0472 -0.31827,0.40195 -0.7062,0.78825 -0.38794,0.3863 -0.91427,0.91683 -1.16963,1.17895 -0.25536,0.26213 -0.50377,0.4766 -0.55203,0.4766 -0.0482,0 -0.25605,0.16932 -0.46179,0.37627 -0.20573,0.20694 -0.46369,0.44398 -0.57324,0.52676 -0.10956,0.0828 -0.39094,0.30104 -0.62529,0.48503 -0.23436,0.18399 -0.42747,0.29687 -0.42915,0.25084 -0.002,-0.046 -0.0491,-0.005 -0.10533,0.0919 -0.0562,0.0966 -0.16775,0.17559 -0.24779,0.17559 -0.08,0 -0.14551,0.0478 -0.14551,0.10626 0,0.0584 -0.0452,0.0784 -0.10034,0.0442 -0.0552,-0.0341 -0.10034,-0.0128 -0.10034,0.0474 0,0.0602 -0.079,0.13724 -0.17559,0.17126 -0.0966,0.034 -0.31104,0.16096 -0.4766,0.28209 -0.44311,0.32419 -1.25397,0.76084 -1.25574,0.67622 -8e-4,-0.0403 -0.0347,-0.0227 -0.0753,0.039 -0.10643,0.16208 -1.09121,0.64286 -1.1652,0.56887 -0.0343,-0.0343 -0.0624,-0.0144 -0.0624,0.0442 0,0.1549 -2.78404,1.24761 -3.26094,1.27988 -0.0552,0.004 -0.14641,0.0357 -0.20271,0.0711 -0.0906,0.0569 -1.57299,0.44238 -2.10503,0.54743 -1.73159,0.34192 -5.58967,0.67419 -5.77772,0.4976 z"
       style="fill:#e8e8e8;fill-opacity:1;stroke-width:0.1003366" />
    <circle
       r="49.047619"
       cy="50"
       cx="50"
       id="path831"
       style="opacity:1;fill:none;fill-opacity:1;stroke:#e8e8e8;stroke-width:1.90476191;stroke-miterlimit:4;stroke-dasharray:none;stroke-opacity:1" />
  </g>
</svg>
