<?xml version="1.0" encoding="UTF-8" standalone="no"?>
<!-- Created with Inkscape (http://www.inkscape.org/) -->

<svg
   xmlns:dc="http://purl.org/dc/elements/1.1/"
   xmlns:cc="http://creativecommons.org/ns#"
   xmlns:rdf="http://www.w3.org/1999/02/22-rdf-syntax-ns#"
   xmlns:svg="http://www.w3.org/2000/svg"
   xmlns="http://www.w3.org/2000/svg"
   xmlns:sodipodi="http://sodipodi.sourceforge.net/DTD/sodipodi-0.dtd"
   xmlns:inkscape="http://www.inkscape.org/namespaces/inkscape"
   version="1.1"
   id="svg815"
   width="60"
   height="60"
   viewBox="0 0 59.999999 59.999999"
   sodipodi:docname="Nightstand-cloud.svg"
   inkscape:version="0.92.3 (2405546, 2018-03-11)">
  <metadata
     id="metadata821">
    <rdf:RDF>
      <cc:Work
         rdf:about="">
        <dc:format>image/svg+xml</dc:format>
        <dc:type
           rdf:resource="http://purl.org/dc/dcmitype/StillImage" />
        <dc:title></dc:title>
      </cc:Work>
    </rdf:RDF>
  </metadata>
  <defs
     id="defs819" />
  <sodipodi:namedview
     pagecolor="#ffffff"
     bordercolor="#666666"
     borderopacity="1"
     objecttolerance="10"
     gridtolerance="10"
     guidetolerance="10"
     inkscape:pageopacity="0"
     inkscape:pageshadow="2"
     inkscape:window-width="1920"
     inkscape:window-height="1017"
     id="namedview817"
     showgrid="false"
     inkscape:zoom="2.71"
     inkscape:cx="145.75646"
     inkscape:cy="36.531365"
     inkscape:window-x="-8"
     inkscape:window-y="-8"
     inkscape:window-maximized="1"
     inkscape:current-layer="svg815" />
  <path
     style="fill:#e8e8e8;fill-opacity:1;stroke-width:0.13278385"
     d="m 9.6689149,48.809859 c -3.68333,-0.63004 -6.84627,-2.98212 -8.47937,-6.30558 -0.87586999,-1.78246 -1.189529986068,-3.14795 -1.189529986068,-5.17857 0,-3.76654 1.528519986068,-6.85681 4.542019986068,-9.18278 0.76786,-0.59267 2.67541,-1.63911 2.98793,-1.63911 0.0961,0 0.1705,-0.15836 0.17161,-0.36515 0.004,-0.68149 0.40608,-2.08361 0.88195,-3.073 0.70236,-1.46027 2.2517291,-2.98475 3.7635291,-3.70309 1.36306,-0.64767 2.16339,-0.82579 3.71049,-0.82579 1.37274,0 2.56213,0.31492 3.82031,1.01151 l 0.82522,0.45688 0.28929,-0.56821 c 0.921588,-1.81019 2.782148,-3.97694 4.548828,-5.29747 1.39119,-1.03984 3.64567,-2.13159 5.3292,-2.58068 1.78211,-0.4754 4.84401,-0.5993 6.63919,-0.26866 4.79985,0.88405 8.77088,3.69466 11.13867,7.88371 1.18363,2.09405 1.92441,4.79032 1.9778,7.19876 l 0.0291,1.31424 0.99588,0.22039 c 3.70219,0.8193 6.63891,3.40506 7.87764,6.9362 0.35602,1.01486 0.41173,1.37269 0.46088,2.96015 0.0679,2.19329 -0.18421,3.39942 -1.09359,5.2318 -1.06656,2.14911 -2.74561,3.80557 -4.91089,4.84485 -2.24526,1.07766 -0.17703,0.98729 -23.1811,1.01285 -11.283308,0.0125 -20.794098,-0.0249 -21.1350871,-0.0833 z m 41.3599971,-2.5848 c 1.56108,-0.33077 2.80262,-1.02543 4.01437,-2.24608 1.72171,-1.73437 2.44424,-3.4447 2.44831,-5.79548 0.004,-2.06295 -0.72754,-3.95075 -2.11755,-5.4677 -1.62302,-1.77124 -3.50131,-2.61557 -6.07293,-2.72991 l -1.48685,-0.0661 0.0926,-0.41334 c 0.051,-0.22733 0.0892,-1.459 0.085,-2.73705 -0.007,-2.13515 -0.0367,-2.41834 -0.3658,-3.4898 -1.17151,-3.81384 -3.7495,-6.80136 -7.30263,-8.46269 -1.9263,-0.90068 -3.02333,-1.12308 -5.53595,-1.12229 -1.87816,5.8e-4 -2.34039,0.0436 -3.23781,0.30137 -3.87195,1.1121 -6.86555,3.52984 -8.57958,6.92918 -0.23887,0.47375 -0.57052,1.22066 -0.73699,1.6598 -0.16647,0.43915 -0.3694,0.97138 -0.45094,1.18274 l -0.14827,0.3843 -1.025078,-0.99307 c -1.71496,-1.66139 -2.93003,-2.17241 -4.92916,-2.07306 -1.81936,0.0904 -3.28552,0.87117 -4.38579,2.33549 -0.75866,1.00968 -1.08622,1.98582 -1.18591,3.53406 l -0.0847,1.31469 -0.7966991,0.21904 c -2.99974,0.82473 -5.20288,2.94617 -6.33731,6.1023 -0.3819,1.06252 -0.47221,3.3828 -0.18236,4.6856 0.77801,3.49701 3.46559,6.14436 7.0508,6.94526 1.2303791,0.27486 39.9747771,0.27744 41.2711471,0.003 z"
     id="path3109"
     inkscape:connector-curvature="0" />
</svg>
